<?xml version="1.0" encoding="UTF-8" standalone="no"?>
<svg
   width="16"
   height="16"
   version="1.1"
   viewBox="0 0 15.998754 15.999422"
   xml:space="preserve"
   id="svg35"
   sodipodi:docname="microbitCon16.svg"
   inkscape:version="1.1.1 (3bf5ae0d25, 2021-09-20)"
   xmlns:inkscape="http://www.inkscape.org/namespaces/inkscape"
   xmlns:sodipodi="http://sodipodi.sourceforge.net/DTD/sodipodi-0.dtd"
   xmlns:xlink="http://www.w3.org/1999/xlink"
   xmlns="http://www.w3.org/2000/svg"
   xmlns:svg="http://www.w3.org/2000/svg"><sodipodi:namedview
     id="namedview37"
     pagecolor="#ffffff"
     bordercolor="#666666"
     borderopacity="1.0"
     inkscape:pageshadow="2"
     inkscape:pageopacity="0.0"
     inkscape:pagecheckerboard="0"
     inkscape:document-units="mm"
     showgrid="false"
     inkscape:zoom="40.96"
     inkscape:cx="10.229492"
     inkscape:cy="8.0200195"
     inkscape:window-width="1920"
     inkscape:window-height="1057"
     inkscape:window-x="-8"
     inkscape:window-y="-8"
     inkscape:window-maximized="1"
     inkscape:current-layer="svg35"
     units="px"
     width="16px" /><defs
     id="defs23"><linearGradient
       id="linearGradient2604"
       x1="96.916"
       x2="62.249001"
       y1="405.87"
       y2="357.54001"
       gradientTransform="matrix(1,0,0,-1,-32.722,419.97)"
       gradientUnits="userSpaceOnUse"
       xlink:href="#SVGID_1_" /><linearGradient
       id="SVGID_2_"
       x1="77.237"
       x2="42.57"
       y1="419.98001"
       y2="371.64999"
       gradientTransform="matrix(1,0,0,-1,0,419.89)"
       gradientUnits="userSpaceOnUse"><stop
         fill="url(#SVGID_1_)"
         stop-color="#02ec00"
         offset="0"
         id="stop3" /><stop
         fill="url(#SVGID_1_)"
         stop-color="#3edcfd"
         offset="1"
         id="stop5" /></linearGradient><linearGradient
       id="SVGID_3_"
       x1="63.880001"
       x2="29.212999"
       y1="429.56"
       y2="381.23001"
       gradientTransform="matrix(1,0,0,-1,0,419.89)"
       gradientUnits="userSpaceOnUse"><stop
         fill="url(#SVGID_1_)"
         stop-color="#02ec00"
         offset="0"
         id="stop8" /><stop
         fill="url(#SVGID_1_)"
         stop-color="#3edcfd"
         offset="1"
         id="stop10" /></linearGradient><linearGradient
       id="SVGID_4_"
       x1="70.600998"
       x2="35.933998"
       y1="424.73999"
       y2="376.41"
       gradientTransform="matrix(1,0,0,-1,0,419.89)"
       gradientUnits="userSpaceOnUse"><stop
         fill="url(#SVGID_1_)"
         stop-color="#02ec00"
         offset="0"
         id="stop13" /><stop
         fill="url(#SVGID_1_)"
         stop-color="#3edcfd"
         offset="1"
         id="stop15" /></linearGradient><linearGradient
       id="SVGID_1_"
       x1="96.916"
       x2="62.249001"
       y1="405.87"
       y2="357.54001"
       gradientTransform="matrix(1,0,0,-1,0,419.89)"
       gradientUnits="userSpaceOnUse"><stop
         fill="url(#SVGID_1_)"
         stop-color="#02ec00"
         offset="0"
         id="stop18" /><stop
         fill="url(#SVGID_1_)"
         stop-color="#3edcfd"
         offset="1"
         id="stop20" /></linearGradient><clipPath
       id="SVGID_2_-9"><use
         xlink:href="#SVGID_1_"
         style="overflow:visible"
         id="use7"
         x="0"
         y="0"
         width="100%"
         height="100%" /></clipPath><clipPath
       id="SVGID_2_-4"><use
         xlink:href="#SVGID_1_"
         style="overflow:visible"
         id="use7-6"
         x="0"
         y="0"
         width="100%"
         height="100%" /></clipPath></defs><style
     type="text/css"
     id="style25">
	.st0{fill:url(#SVGID_1_);}
	.st1{fill:url(#SVGID_2_);}
	.st2{fill:url(#SVGID_3_);}
	.st3{fill:url(#SVGID_4_);}
	.st4{fill:url(#SVGID_5_);}
	.st5{fill:url(#SVGID_6_);}
	.st6{fill:url(#SVGID_7_);}
	.st7{fill:url(#SVGID_8_);}
	.st8{fill:url(#SVGID_9_);}
	.st9{fill:url(#SVGID_10_);}
	.st10{fill:url(#SVGID_11_);}
	.st11{fill:url(#SVGID_12_);}
	.st12{fill:url(#SVGID_13_);}
</style><rect
     style="fill:#ffffff;stroke:none;stroke-width:0.24566;stroke-linecap:round;stroke-linejoin:round"
     id="rect2486"
     width="12.891029"
     height="7.5587821"
     x="1.5538623"
     y="7.6439958"
     rx="3.7793911"
     ry="3.7793911" /><g
     transform="matrix(0.33401717,0,0,0.33401717,-0.12659271,6.7210931)"
     id="g33"
     style="stroke-width:2.99386"><path
       class="st1"
       d="m 34.378,16.878 c 1.5,0 2.8,-1.2 2.8,-2.8 0,-1.5 -1.2,-2.8 -2.8,-2.8 -1.5,0 -2.8,1.2 -2.8,2.8 0,1.6 1.2,2.8 2.8,2.8"
       fill="url(#SVGID_2_)"
       id="path27"
       style="fill:url(#SVGID_2_);stroke-width:2.99386" /><path
       class="st2"
       d="m 14.078,11.378 c -1.5,0 -2.8,1.2 -2.8,2.8 0,1.6 1.2,2.8 2.8,2.8 1.5,0 2.8,-1.2 2.8,-2.8 0,-1.6 -1.3,-2.8 -2.8,-2.8"
       fill="url(#SVGID_3_)"
       id="path29"
       style="fill:url(#SVGID_3_);stroke-width:2.99386" /><path
       class="st3"
       d="m 14.078,5.878 c -4.5,0 -8.2,3.7 -8.2,8.2 0,4.5 3.7,8.2 8.2,8.2 h 20.5 c 4.5,0 8.2,-3.7 8.2,-8.2 0,-4.5 -3.7,-8.2 -8.2,-8.2 h -20.5 m 20.5,21.9 h -20.5 c -7.6,0 -13.7,-6.1 -13.7,-13.7 0,-7.6 6.1,-13.7 13.7,-13.7 h 20.5 c 7.6,0 13.7,6.1 13.7,13.7 0,7.6 -6.1,13.7 -13.7,13.7"
       fill="url(#SVGID_4_)"
       id="path31"
       style="fill:url(#SVGID_4_);stroke-width:2.99386" /></g><g
     id="Calque_2"
     transform="matrix(0.03690492,0,0,0.02683669,-0.78709509,-3.6759654)"
     style="stroke-width:31.7744" /><g
     id="g3946"
     transform="matrix(-1,0,0,-0.97818908,11.279508,9.847315)"
     style="stroke:#ffffff;stroke-width:1.01109"><path
       d="m 1.171341,0.02916947 c -0.06509,0.0271 -0.141035,0.0814 -0.173581,0.11933 -0.03797,0.0488 -0.07052,0.77569 -0.09764,2.18061003 l -0.0434,2.10467 0.124762,0.13019 c 0.151883,0.16273 0.341738,0.17358 0.477348,0.038 0.08679,-0.0868 0.108488,-0.23325 0.135609,-1.12828 0.0217,-0.56413 0.03797,-1.41034 0.03797,-1.88227 V 0.73978947 H 3.313975 4.99554 V 2.5569695 c 0,1.74666 0.0054,1.8226 0.108489,1.92566 0.13561,0.13561 0.330888,0.14104 0.477347,0.0109 0.108488,-0.0922 0.113913,-0.14646 0.130186,-2.17518 l 0.01627,-2.07755003 -0.130185,-0.10307 c -0.119337,-0.0976 -0.238674,-0.10306 -1.790054,-0.10306 -0.9113,0 -1.855147,-0.0109 -2.09382,-0.0271 -0.238674,-0.0163 -0.482773,-0.005 -0.542441,0.0217 z"
       id="path6"
       style="fill:#000000;stroke:#ffffff;stroke-width:0.134807" /><path
       d="m 2.077217,1.6998795 0.01627,0.36886 0.395981,0.0163 0.390558,0.0163 v -0.38513 -0.37971 H 2.473195 2.06094 Z"
       id="path18"
       style="fill:#000000;stroke:#ffffff;stroke-width:0.134807" /><path
       d="m 3.73166,1.3744195 c -0.0217,0.0163 -0.03797,0.179 -0.03797,0.35258 v 0.31462 h 0.406831 0.40683 v -0.35259 -0.35258 h -0.36886 c -0.206128,0 -0.390558,0.0163 -0.406831,0.038 z"
       id="path20"
       style="fill:#000000;stroke:#ffffff;stroke-width:0.134807" /><path
       d="m 3.807602,9.9994595 h 0.824509 0.82451 l 0.493621,-0.50447 0.49362,-0.49904 0.07052,-2.29453 c 0.03255,-1.26388 0.05424,-2.30537 0.04339,-2.31079 -0.0054,-0.0108 -1.486287,-0.0326 -3.287189,-0.0542 l -3.270917,-0.038 0.02712,0.82993 c 0.01627,0.45566 0.04882,1.55138 0.06509,2.43014 l 0.03797,1.6002 0.580411,0.41768 0.585836,0.4231 h 0.618383 0.612957 c 11.657808,0 -7.630385,0 1.28016,0 z"
       id="path22"
       style="fill:#000000;stroke:#ffffff;stroke-width:0.134807"
       sodipodi:nodetypes="sccccccccccccccss" /></g></svg>
