<svg width="12.674mm" height="12.674mm" version="1.1" viewBox="0 0 47.898 47.9" xml:space="preserve" xmlns="http://www.w3.org/2000/svg" xmlns:xlink="http://www.w3.org/1999/xlink"><defs><linearGradient id="linearGradient2604" x1="96.916" x2="62.249" y1="405.87" y2="357.54" gradientTransform="matrix(1,0,0,-1,-32.722,419.97)" gradientUnits="userSpaceOnUse" xlink:href="#SVGID_1_"/><linearGradient id="SVGID_2_" x1="77.237" x2="42.57" y1="419.98" y2="371.65" gradientTransform="matrix(1,0,0,-1,0,419.89)" gradientUnits="userSpaceOnUse"><stop fill="url(#SVGID_1_)" stop-color="#02ec00" offset="0"/><stop fill="url(#SVGID_1_)" stop-color="#3edcfd" offset="1"/></linearGradient><linearGradient id="SVGID_3_" x1="63.88" x2="29.213" y1="429.56" y2="381.23" gradientTransform="matrix(1,0,0,-1,0,419.89)" gradientUnits="userSpaceOnUse"><stop fill="url(#SVGID_1_)" stop-color="#02ec00" offset="0"/><stop fill="url(#SVGID_1_)" stop-color="#3edcfd" offset="1"/></linearGradient><linearGradient id="SVGID_4_" x1="70.601" x2="35.934" y1="424.74" y2="376.41" gradientTransform="matrix(1,0,0,-1,0,419.89)" gradientUnits="userSpaceOnUse"><stop fill="url(#SVGID_1_)" stop-color="#02ec00" offset="0"/><stop fill="url(#SVGID_1_)" stop-color="#3edcfd" offset="1"/></linearGradient><linearGradient id="SVGID_1_" x1="96.916" x2="62.249" y1="405.87" y2="357.54" gradientTransform="matrix(1,0,0,-1,0,419.89)" gradientUnits="userSpaceOnUse"><stop fill="url(#SVGID_1_)" stop-color="#02ec00" offset="0"/><stop fill="url(#SVGID_1_)" stop-color="#3edcfd" offset="1"/></linearGradient></defs><style type="text/css">
	.st0{fill:url(#SVGID_1_);}
	.st1{fill:url(#SVGID_2_);}
	.st2{fill:url(#SVGID_3_);}
	.st3{fill:url(#SVGID_4_);}
	.st4{fill:url(#SVGID_5_);}
	.st5{fill:url(#SVGID_6_);}
	.st6{fill:url(#SVGID_7_);}
	.st7{fill:url(#SVGID_8_);}
	.st8{fill:url(#SVGID_9_);}
	.st9{fill:url(#SVGID_10_);}
	.st10{fill:url(#SVGID_11_);}
	.st11{fill:url(#SVGID_12_);}
	.st12{fill:url(#SVGID_13_);}
</style><g transform="translate(-.37883 9.872)"><path class="st1" d="m34.378 16.878c1.5 0 2.8-1.2 2.8-2.8 0-1.5-1.2-2.8-2.8-2.8-1.5 0-2.8 1.2-2.8 2.8s1.2 2.8 2.8 2.8" fill="url(#SVGID_2_)"/><path class="st2" d="m14.078 11.378c-1.5 0-2.8 1.2-2.8 2.8s1.2 2.8 2.8 2.8c1.5 0 2.8-1.2 2.8-2.8s-1.3-2.8-2.8-2.8" fill="url(#SVGID_3_)"/><path class="st3" d="m14.078 5.878c-4.5 0-8.2 3.7-8.2 8.2s3.7 8.2 8.2 8.2h20.5c4.5 0 8.2-3.7 8.2-8.2s-3.7-8.2-8.2-8.2h-20.5m20.5 21.9h-20.5c-7.6 0-13.7-6.1-13.7-13.7s6.1-13.7 13.7-13.7h20.5c7.6 0 13.7 6.1 13.7 13.7s-6.1 13.7-13.7 13.7" fill="url(#SVGID_4_)"/></g></svg>
