<?xml version="1.0" encoding="UTF-8" standalone="no"?>
<svg
   role="img"
   viewBox="0 0 16 16"
   version="1.1"
   id="svg6"
   sodipodi:docname="microbitNoir16.svg"
   width="16"
   height="16"
   inkscape:version="1.1.1 (3bf5ae0d25, 2021-09-20)"
   xmlns:inkscape="http://www.inkscape.org/namespaces/inkscape"
   xmlns:sodipodi="http://sodipodi.sourceforge.net/DTD/sodipodi-0.dtd"
   xmlns="http://www.w3.org/2000/svg"
   xmlns:svg="http://www.w3.org/2000/svg"
   xmlns:rdf="http://www.w3.org/1999/02/22-rdf-syntax-ns#"
   xmlns:cc="http://creativecommons.org/ns#"
   xmlns:dc="http://purl.org/dc/elements/1.1/">
  <defs
     id="defs10" />
  <sodipodi:namedview
     id="namedview8"
     pagecolor="#ffffff"
     bordercolor="#666666"
     borderopacity="1.0"
     inkscape:pageshadow="2"
     inkscape:pageopacity="0.0"
     inkscape:pagecheckerboard="0"
     showgrid="false"
     inkscape:zoom="29.958333"
     inkscape:cx="11.98331"
     inkscape:cy="12"
     inkscape:window-width="1920"
     inkscape:window-height="1057"
     inkscape:window-x="-8"
     inkscape:window-y="-8"
     inkscape:window-maximized="1"
     inkscape:current-layer="svg6" />
  <title
     id="title2">micro:bit icon</title>
  <path
     d="M 4.5713334,3.4286665 A 4.5766667,4.5766667 0 0 0 0,7.9999998 4.576,4.576 0 0 0 4.5713334,12.571334 H 11.429333 A 4.5753334,4.5753334 0 0 0 16,7.9999998 C 16,5.4793332 13.95,3.4286665 11.429333,3.4286665 Z m 0,1.8293333 h 6.8579996 a 2.7446667,2.7446667 0 0 1 2.742,2.742 2.746,2.746 0 0 1 -2.742,2.7439992 H 4.5713334 a 2.7466667,2.7466667 0 0 1 -2.7426667,-2.7439992 2.7453333,2.7453333 0 0 1 2.7426667,-2.742 z M 11.35,7.0773332 A 0.92333388,0.92333388 0 1 0 11.352,8.9239995 0.92333388,0.92333388 0 0 0 11.35,7.0773332 Z m -6.7773333,0 a 0.92366721,0.92366721 0 1 0 -0.002,1.8473333 0.92333389,0.92333389 0 0 0 0.002,-1.8466667 z"
     id="path4"
     style="stroke-width:1" />
  <metadata
     id="metadata2428">
    <rdf:RDF>
      <cc:Work
         rdf:about="">
        <dc:title>micro:bit icon</dc:title>
      </cc:Work>
    </rdf:RDF>
  </metadata>
</svg>
