<svg width="31.209mm" height="14.884mm" version="1.1" viewBox="0 0 117.96 56.256" xml:space="preserve" xmlns="http://www.w3.org/2000/svg" xmlns:xlink="http://www.w3.org/1999/xlink"><defs><linearGradient id="linearGradient2602" x1="96.916" x2="62.249" y1="405.87" y2="357.54" gradientTransform="matrix(1,0,0,-1,0,419.89)" gradientUnits="userSpaceOnUse" xlink:href="#SVGID_1_"/></defs><style type="text/css">
	.st0{fill:url(#SVGID_1_);}
	.st1{fill:url(#SVGID_2_);}
	.st2{fill:url(#SVGID_3_);}
	.st3{fill:url(#SVGID_4_);}
	.st4{fill:url(#SVGID_5_);}
	.st5{fill:url(#SVGID_6_);}
	.st6{fill:url(#SVGID_7_);}
	.st7{fill:url(#SVGID_8_);}
	.st8{fill:url(#SVGID_9_);}
	.st9{fill:url(#SVGID_10_);}
	.st10{fill:url(#SVGID_11_);}
	.st11{fill:url(#SVGID_12_);}
	.st12{fill:url(#SVGID_13_);}
</style><g transform="translate(.077953 .077953)" fill="url(#linearGradient2602)"><linearGradient id="SVGID_1_" x1="96.916" x2="62.249" y1="405.87" y2="357.54" gradientTransform="matrix(1,0,0,-1,0,419.89)" gradientUnits="userSpaceOnUse"><stop fill="url(#SVGID_1_)" stop-color="#02ec00" offset="0"/><stop fill="url(#SVGID_1_)" stop-color="#3edcfd" offset="1"/></linearGradient><path class="st0" d="m77.1 43.9c-1.3 0-2.3-1-2.3-2.3s1-2.3 2.3-2.3 2.3 1 2.3 2.3c0.1 1.2-1 2.3-2.3 2.3z"/><linearGradient id="SVGID_2_" x1="77.237" x2="42.57" y1="419.98" y2="371.65" gradientTransform="matrix(1,0,0,-1,0,419.89)" gradientUnits="userSpaceOnUse"><stop fill="url(#SVGID_1_)" stop-color="#02ec00" offset="0"/><stop fill="url(#SVGID_1_)" stop-color="#3edcfd" offset="1"/></linearGradient><path class="st1" d="m67.1 16.8c1.5 0 2.8-1.2 2.8-2.8 0-1.5-1.2-2.8-2.8-2.8-1.5 0-2.8 1.2-2.8 2.8s1.2 2.8 2.8 2.8"/><linearGradient id="SVGID_3_" x1="63.88" x2="29.213" y1="429.56" y2="381.23" gradientTransform="matrix(1,0,0,-1,0,419.89)" gradientUnits="userSpaceOnUse"><stop fill="url(#SVGID_1_)" stop-color="#02ec00" offset="0"/><stop fill="url(#SVGID_1_)" stop-color="#3edcfd" offset="1"/></linearGradient><path class="st2" d="m46.8 11.3c-1.5 0-2.8 1.2-2.8 2.8s1.2 2.8 2.8 2.8c1.5 0 2.8-1.2 2.8-2.8s-1.3-2.8-2.8-2.8"/><linearGradient id="SVGID_4_" x1="70.601" x2="35.934" y1="424.74" y2="376.41" gradientTransform="matrix(1,0,0,-1,0,419.89)" gradientUnits="userSpaceOnUse"><stop fill="url(#SVGID_1_)" stop-color="#02ec00" offset="0"/><stop fill="url(#SVGID_1_)" stop-color="#3edcfd" offset="1"/></linearGradient><path class="st3" d="m46.8 5.8c-4.5 0-8.2 3.7-8.2 8.2s3.7 8.2 8.2 8.2h20.5c4.5 0 8.2-3.7 8.2-8.2s-3.7-8.2-8.2-8.2h-20.5m20.5 21.9h-20.5c-7.6 0-13.7-6.1-13.7-13.7s6.1-13.7 13.7-13.7h20.5c7.6 0 13.7 6.1 13.7 13.7s-6.1 13.7-13.7 13.7"/><linearGradient id="SVGID_5_" x1="56.938" x2="22.271" y1="434.54" y2="386.21" gradientTransform="matrix(1,0,0,-1,0,419.89)" gradientUnits="userSpaceOnUse"><stop fill="url(#SVGID_1_)" stop-color="#02ec00" offset="0"/><stop fill="url(#SVGID_1_)" stop-color="#3edcfd" offset="1"/></linearGradient><path class="st4" d="m21.4 55.4h-3.3v-9.3c0-2.1-1.2-3.6-2.8-3.6-1.7 0-2.8 1.5-2.8 3.6v9.3h-3.3v-9.3c0-2.3-1.4-3.6-2.8-3.6-1.7 0-2.8 1.5-2.8 3.6v9.3h-3.3v-9.1c0-4.1 2.5-7 6.1-7 1.7 0 3.2 0.7 4.5 2.1 1.2-1.4 2.8-2.1 4.5-2.1 3.6 0 6.1 2.9 6.1 7v9.1z"/><linearGradient id="SVGID_6_" x1="64.434" x2="29.767" y1="429.17" y2="380.83" gradientTransform="matrix(1,0,0,-1,0,419.89)" gradientUnits="userSpaceOnUse"><stop fill="url(#SVGID_1_)" stop-color="#02ec00" offset="0"/><stop fill="url(#SVGID_1_)" stop-color="#3edcfd" offset="1"/></linearGradient><path class="st5" d="m27.4 55.4h-3.3v-15.8h3.3zm-1.6-18.1c-1.2 0-2.1-1-2.1-2.2s0.9-2.1 2.1-2.1 2.2 0.9 2.2 2.1c-0.1 1.3-1 2.2-2.2 2.2z"/><linearGradient id="SVGID_7_" x1="74.039" x2="39.372" y1="422.28" y2="373.94" gradientTransform="matrix(1,0,0,-1,0,419.89)" gradientUnits="userSpaceOnUse"><stop fill="url(#SVGID_1_)" stop-color="#02ec00" offset="0"/><stop fill="url(#SVGID_1_)" stop-color="#3edcfd" offset="1"/></linearGradient><path class="st6" d="m38.1 55.8c-2.2 0-4.2-0.9-5.7-2.4s-2.3-3.6-2.3-5.8c0-2.3 0.8-4.3 2.3-5.8s3.6-2.4 5.7-2.4c2.4 0 4.3 0.8 5.8 2.3l0.4 0.4-2.4 2.4-0.4-0.4c-1.1-1-2.2-1.5-3.4-1.5-2.7 0-4.8 2.2-4.8 4.9s2.2 5 4.8 5c1.3 0 2.3-0.5 3.4-1.5l0.4-0.4 2.5 2.3-0.5 0.5c-1.8 1.6-3.8 2.4-5.8 2.4z"/><linearGradient id="SVGID_8_" x1="81.835" x2="47.168" y1="416.69" y2="368.35" gradientTransform="matrix(1,0,0,-1,0,419.89)" gradientUnits="userSpaceOnUse"><stop fill="url(#SVGID_1_)" stop-color="#02ec00" offset="0"/><stop fill="url(#SVGID_1_)" stop-color="#3edcfd" offset="1"/></linearGradient><path class="st7" d="m50.2 55.4h-3.6v-7.9c0-5 2.2-7.5 7.1-7.9l0.7-0.1v3.3l-0.6 0.1c-2.7 0.3-3.7 1.5-3.7 4.4v8.1z"/><linearGradient id="SVGID_9_" x1="90.839" x2="56.173" y1="410.23" y2="361.89" gradientTransform="matrix(1,0,0,-1,0,419.89)" gradientUnits="userSpaceOnUse"><stop fill="url(#SVGID_1_)" stop-color="#02ec00" offset="0"/><stop fill="url(#SVGID_1_)" stop-color="#3edcfd" offset="1"/></linearGradient><path class="st8" d="m63.6 55.8c-2.2 0-4.2-0.9-5.7-2.4-1.5-1.6-2.4-3.6-2.4-5.8s0.8-4.3 2.4-5.8c1.5-1.6 3.6-2.4 5.7-2.4s4.2 0.9 5.7 2.4 2.4 3.6 2.4 5.8-0.8 4.3-2.4 5.8c-1.5 1.5-3.6 2.4-5.7 2.4zm0-13.3c-2.6 0-4.6 2.2-4.6 5 0 2.7 2.1 4.9 4.6 4.9 2.6 0 4.7-2.2 4.7-4.9-0.1-2.7-2.2-5-4.7-5z"/><linearGradient id="SVGID_10_" x1="102.36" x2="67.696" y1="401.96" y2="353.63" gradientTransform="matrix(1,0,0,-1,0,419.89)" gradientUnits="userSpaceOnUse"><stop fill="url(#SVGID_1_)" stop-color="#02ec00" offset="0"/><stop fill="url(#SVGID_1_)" stop-color="#3edcfd" offset="1"/></linearGradient><path class="st9" d="m77.1 55.4c-1.3 0-2.3-1-2.3-2.3s1-2.3 2.3-2.3 2.3 1 2.3 2.3c0.1 1.2-1 2.3-2.3 2.3z"/><linearGradient id="SVGID_11_" x1="105.75" x2="71.082" y1="399.53" y2="351.2" gradientTransform="matrix(1,0,0,-1,0,419.89)" gradientUnits="userSpaceOnUse"><stop fill="url(#SVGID_1_)" stop-color="#02ec00" offset="0"/><stop fill="url(#SVGID_1_)" stop-color="#3edcfd" offset="1"/></linearGradient><path class="st10" d="m90.7 55.8c-4.8 0-8.1-3.7-8.1-9v-1-13.5h3.3v8.6c1.4-1 3-1.5 4.8-1.5 2.2 0 4.2 0.9 5.7 2.4 1.5 1.6 2.4 3.6 2.4 5.8s-0.8 4.3-2.4 5.8c-1.5 1.5-3.5 2.4-5.7 2.4zm0-13.2c-2.7 0-4.8 2.2-4.8 5s2.1 4.9 4.8 4.9 4.8-2.2 4.8-4.9c0-2.8-2.1-5-4.8-5z"/><linearGradient id="SVGID_12_" x1="115.64" x2="80.974" y1="392.44" y2="344.11" gradientTransform="matrix(1,0,0,-1,0,419.89)" gradientUnits="userSpaceOnUse"><stop fill="url(#SVGID_1_)" stop-color="#02ec00" offset="0"/><stop fill="url(#SVGID_1_)" stop-color="#3edcfd" offset="1"/></linearGradient><path class="st11" d="m105 55.4h-3.3v-15.8h3.3zm-1.7-18.1c-1.2 0-2.1-1-2.1-2.2s0.9-2.1 2.1-2.1 2.2 0.9 2.2 2.1c0 1.3-1 2.2-2.2 2.2z"/><linearGradient id="SVGID_13_" x1="123.24" x2="88.577" y1="386.99" y2="338.65" gradientTransform="matrix(1,0,0,-1,0,419.89)" gradientUnits="userSpaceOnUse"><stop fill="url(#SVGID_1_)" stop-color="#02ec00" offset="0"/><stop fill="url(#SVGID_1_)" stop-color="#3edcfd" offset="1"/></linearGradient><path class="st12" d="m117.5 55.8-0.7-0.1c-4.9-1-6.8-3.3-6.8-8.7v-3.9h-1.4v-3.2h1.4v-3.5h3.4v3.5h4.1v3.2h-4.1v4.5c0 2.9 1.1 4.4 3.6 4.8l0.5 0.1z"/></g></svg>
