<?xml version="1.0" encoding="UTF-8" standalone="no"?>
<!-- Created with Inkscape (http://www.inkscape.org/) -->

<svg
   id="svg4789"
   width="16"
   height="16"
   version="1.0"
   sodipodi:docname="trash16.svg"
   inkscape:version="1.1.1 (3bf5ae0d25, 2021-09-20)"
   xmlns:inkscape="http://www.inkscape.org/namespaces/inkscape"
   xmlns:sodipodi="http://sodipodi.sourceforge.net/DTD/sodipodi-0.dtd"
   xmlns="http://www.w3.org/2000/svg"
   xmlns:svg="http://www.w3.org/2000/svg"
   xmlns:rdf="http://www.w3.org/1999/02/22-rdf-syntax-ns#"
   xmlns:cc="http://creativecommons.org/ns#"
   xmlns:dc="http://purl.org/dc/elements/1.1/">
  <sodipodi:namedview
     id="namedview6"
     pagecolor="#ffffff"
     bordercolor="#666666"
     borderopacity="1.0"
     inkscape:pageshadow="2"
     inkscape:pageopacity="0.0"
     inkscape:pagecheckerboard="0"
     showgrid="false"
     inkscape:zoom="44.9375"
     inkscape:cx="3.5827538"
     inkscape:cy="8"
     inkscape:window-width="1920"
     inkscape:window-height="1057"
     inkscape:window-x="-8"
     inkscape:window-y="-8"
     inkscape:window-maximized="1"
     inkscape:current-layer="svg4789" />
  <metadata
     id="metadata4794">
    <rdf:RDF>
      <cc:Work
         rdf:about="">
        <dc:format>image/svg+xml</dc:format>
        <dc:type
           rdf:resource="http://purl.org/dc/dcmitype/StillImage" />
        <cc:license
           rdf:resource="http://web.resource.org/cc/PublicDomain" />
      </cc:Work>
      <cc:License
         rdf:about="http://web.resource.org/cc/PublicDomain">
        <cc:permits
           rdf:resource="http://web.resource.org/cc/Reproduction" />
        <cc:permits
           rdf:resource="http://web.resource.org/cc/Distribution" />
        <cc:permits
           rdf:resource="http://web.resource.org/cc/DerivativeWorks" />
      </cc:License>
    </rdf:RDF>
  </metadata>
  <defs
     id="defs4792" />
  <path
     style="fill:#ff0000;stroke-width:1"
     d="m 8.4765399,14.317832 c -0.3642936,-0.06675 -1.6627586,-0.122756 -2.1562934,-0.093 -0.646662,0.039 -2.5484614,0.03712 -2.7852682,-0.0028 -0.3345222,-0.05625 -0.3175871,-0.04228 -0.3395387,-0.280791 -0.010882,-0.118257 -0.044614,-0.339891 -0.074962,-0.492526 -0.030348,-0.152625 -0.045435,-0.292285 -0.033529,-0.31035 0.020182,-0.03066 0.7116797,-0.02569 1.1661795,0.0084 0.3942984,0.02953 1.2973753,0.02288 1.726982,-0.01275 0.594434,-0.04922 2.1080484,-0.01931 2.2170245,0.04378 0.03892,0.02259 1.8800154,0.02297 2.3141664,5.72e-4 0.476552,-0.02466 0.584598,-0.02316 1.043027,0.01425 0.654148,0.05334 0.715101,0.08353 0.600965,0.29806 -0.03138,0.05897 -0.05381,0.183113 -0.05381,0.297797 0,0.171966 -0.08556,0.49352 -0.146551,0.550689 -0.01152,0.01078 -0.07175,0.0028 -0.133835,-0.01753 -0.06209,-0.02044 -0.389889,-0.045 -0.728446,-0.05466 -0.486711,-0.01388 -0.647768,-0.0075 -0.769446,0.02934 -0.177053,0.05391 -1.5803439,0.07012 -1.8466743,0.02137 z m 3.0093951,-1.363136 c -0.06583,-0.02259 -0.208179,-0.04209 -0.31633,-0.0435 l -0.196636,-0.0028 2.2e-4,-0.168319 c 1.09e-4,-0.09263 0.02321,-0.209644 0.05129,-0.260148 0.0281,-0.05053 0.05109,-0.148603 0.05109,-0.217997 0,-0.06938 0.02052,-0.165131 0.0456,-0.212747 0.02508,-0.04763 0.04955,-0.158475 0.05437,-0.246347 0.0048,-0.08784 0.02649,-0.188869 0.04812,-0.224429 0.0352,-0.05784 0.06448,-0.198422 0.153688,-0.737907 0.01458,-0.08812 0.04498,-0.191813 0.06755,-0.230325 0.02258,-0.03853 0.04159,-0.117872 0.04226,-0.176335 6.69e-4,-0.0585 0.02322,-0.142369 0.05008,-0.18645 0.02723,-0.04462 0.04941,-0.167147 0.05008,-0.2766099 8.28e-4,-0.1343908 0.01742,-0.2090534 0.05251,-0.2363628 0.03151,-0.024563 0.05129,-0.094847 0.05129,-0.1823627 0,-0.078375 0.01545,-0.169519 0.03434,-0.2026034 0.01889,-0.033094 0.05649,-0.1944378 0.08357,-0.3585662 0.02708,-0.1641377 0.07394,-0.399413 0.104138,-0.5228444 0.03019,-0.1234315 0.06626,-0.3216286 0.08015,-0.4404288 0.01389,-0.1188095 0.04391,-0.2335034 0.06671,-0.2548785 0.0228,-0.021375 0.04146,-0.1160533 0.04146,-0.2103846 0,-0.094331 0.02094,-0.2104691 0.04653,-0.2580848 0.02559,-0.047625 0.05636,-0.2005128 0.06839,-0.3397598 0.01203,-0.1392565 0.0352,-0.2691004 0.05152,-0.2885442 0.01632,-0.019406 0.03811,-0.1272002 0.04841,-0.2394378 0.01038,-0.112247 0.03544,-0.2197316 0.05584,-0.2388566 0.02041,-0.019125 0.03764,-0.1148345 0.03829,-0.2127003 6.62e-4,-0.097856 0.02319,-0.213994 0.05008,-0.2580847 0.02688,-0.044063 0.04942,-0.1542284 0.05008,-0.2447816 6.69e-4,-0.090563 0.0231,-0.2348253 0.04984,-0.3206067 0.05498,-0.1763815 0.111239,-0.5045351 0.157267,-0.91757 0.01721,-0.1543878 0.04716,-0.3085317 0.06659,-0.3425443 0.01942,-0.034031 0.03567,-0.124097 0.03612,-0.2002034 4.37e-4,-0.076125 0.01685,-0.196069 0.03643,-0.2665972 0.01959,-0.0705 0.04615,-0.2148097 0.05903,-0.3206067 l 0.02342,-0.1923664 0.256482,-0.00844 c 0.231125,-0.0075 0.266625,-6.375e-4 0.359076,0.072 0.09549,0.075 0.09845,0.083625 0.04275,0.1243502 -0.0401,0.029344 -0.05985,0.088219 -0.05985,0.1784627 0,0.074063 -0.02206,0.2023503 -0.04902,0.2850098 -0.07661,0.2348909 -0.09008,0.4560475 -0.02912,0.477985 0.02795,0.010031 0.06083,0.00469 0.07304,-0.011719 0.03303,-0.044625 0.512155,-0.3371724 0.689051,-0.4206944 0.08464,-0.039937 0.200056,-0.1002939 0.256483,-0.1340627 0.05642,-0.03375 0.164149,-0.092719 0.239383,-0.1310626 0.07524,-0.038344 0.149097,-0.089813 0.164138,-0.1143939 0.01504,-0.024656 0.0436,-0.044719 0.06347,-0.044719 0.01987,0 0.09442,-0.043312 0.165662,-0.096178 0.07125,-0.052875 0.152365,-0.096178 0.180271,-0.096178 0.02791,0 0.06989,-0.021656 0.09331,-0.048094 0.02342,-0.026439 0.06878,-0.048094 0.100822,-0.048094 0.06182,0 0.20696,0.1265444 0.20696,0.1804226 0,0.017625 0.04617,0.0735 0.102591,0.1241533 0.05782,0.051938 0.102591,0.1255033 0.102591,0.1685908 0,0.042 0.02308,0.098081 0.05129,0.1245377 0.02822,0.026438 0.05129,0.06 0.05129,0.074625 0,0.03375 -0.722416,0.5311133 -0.85494,0.588554 -0.02822,0.012188 -0.09746,0.050719 -0.15389,0.0855 -0.05642,0.034781 -0.133372,0.078188 -0.17099,0.096309 -0.03763,0.018188 -0.114562,0.060844 -0.170987,0.094913 -0.05642,0.034031 -0.171843,0.094828 -0.256482,0.1350752 -0.08464,0.040219 -0.215445,0.1092658 -0.290679,0.1533752 -0.219455,0.1286627 -0.269538,0.1569003 -0.341978,0.1928159 -0.03763,0.018656 -0.114562,0.062344 -0.170988,0.097088 -0.05642,0.034781 -0.133371,0.076125 -0.170988,0.092063 -0.114789,0.048469 -0.178397,0.1414783 -0.200084,0.2926973 -0.0349,0.2433753 -0.111143,0.557382 -0.153224,0.6310977 -0.02199,0.038531 -0.03997,0.1438127 -0.03997,0.2340097 0,0.090188 -0.02371,0.206991 -0.05269,0.2595379 -0.02898,0.0525 -0.04559,0.1062939 -0.03692,0.1194564 0.0088,0.013125 -0.0071,0.1245471 -0.03501,0.2475191 -0.02793,0.1229814 -0.0631,0.3173817 -0.07816,0.4319912 -0.01506,0.114619 -0.04398,0.2444629 -0.06429,0.2885442 -0.0203,0.044063 -0.04676,0.191869 -0.0588,0.3284067 -0.01204,0.1365377 -0.03597,0.256416 -0.0532,0.266391 -0.01722,0.00994 -0.0313,0.064219 -0.0313,0.120647 0,0.056438 -0.01664,0.1529159 -0.03697,0.2145191 -0.02033,0.061594 -0.04973,0.1985628 -0.06533,0.3043598 -0.05694,0.3863068 -0.108011,0.6445134 -0.156198,0.7897792 -0.02712,0.08175 -0.04938,0.2187753 -0.04951,0.3045754 -1.1e-4,0.085781 -0.0232,0.1973163 -0.05129,0.2478283 -0.0281,0.05053 -0.05118,0.173138 -0.0513,0.272513 -1.1e-4,0.09938 -0.02321,0.222 -0.0513,0.272512 -0.0281,0.05053 -0.05109,0.173982 -0.05109,0.274398 0,0.110897 -0.01971,0.207 -0.0502,0.2448 -0.0276,0.03422 -0.0507,0.130978 -0.05129,0.215007 -5.97e-4,0.084 -0.02294,0.235509 -0.04965,0.336638 -0.06523,0.246956 -0.11617,0.484641 -0.169969,0.793004 -0.06856,0.392925 -0.09136,0.420075 -0.294435,0.350475 z m -1.7013353,-0.0495 c -0.05651,-0.05456 -0.05437,-0.324422 0.0043,-0.542701 0.02588,-0.09628 0.05652,-0.287588 0.0681,-0.425119 0.01158,-0.137532 0.03657,-0.277247 0.05554,-0.310482 0.01897,-0.03319 0.03541,-0.158747 0.03653,-0.278935 0.0011,-0.120178 0.01642,-0.290644 0.03401,-0.378816 0.08769,-0.439688 0.1440623,-0.796951 0.1670283,-1.0585323 0.01397,-0.1590096 0.04323,-0.320363 0.06504,-0.3585755 0.02182,-0.03825 0.03966,-0.1611659 0.03966,-0.2732441 0,-0.1120689 0.02308,-0.2868473 0.0513,-0.3883881 0.02822,-0.1015501 0.05129,-0.2483535 0.05129,-0.3262223 0,-0.077906 0.02149,-0.2034097 0.04776,-0.2789629 0.02626,-0.075563 0.05535,-0.2638316 0.06464,-0.4183975 0.0093,-0.1545564 0.03206,-0.2988285 0.05061,-0.3205973 0.01853,-0.02175 0.04096,-0.1508721 0.04983,-0.2868941 0.0089,-0.1360221 0.03177,-0.265866 0.05089,-0.2885442 0.01912,-0.022687 0.04474,-0.1687596 0.05695,-0.3246286 0.01222,-0.1558689 0.03738,-0.3100129 0.05595,-0.3425442 0.01858,-0.032531 0.03376,-0.1515752 0.03376,-0.2645441 0,-0.1129783 0.02292,-0.2762254 0.05093,-0.3627849 0.02801,-0.086531 0.05109,-0.2301003 0.05129,-0.3189661 2.2e-4,-0.088875 0.02346,-0.2446691 0.05167,-0.3462098 0.02822,-0.1015502 0.05129,-0.2597723 0.05129,-0.3516005 0,-0.091781 0.01598,-0.2173597 0.0355,-0.2789629 0.01953,-0.061594 0.04368,-0.256266 0.05368,-0.4326006 0.01007,-0.1763346 0.04018,-0.4020381 0.06709,-0.5015632 0.02691,-0.099525 0.04893,-0.2580754 0.04893,-0.3523224 0,-0.2290695 0.09424,-0.4442729 0.194617,-0.4444417 0.04121,-4.69e-5 0.08549,0.015938 0.0984,0.035438 0.01329,0.020156 0.0704,0.028406 0.131735,0.019125 0.05955,-0.00937 0.176856,-0.00281 0.260683,0.014344 0.08382,0.016969 0.244218,0.044625 0.356423,0.0615 0.235081,0.035438 0.277297,0.062531 0.228022,0.146194 -0.01939,0.032906 -0.04462,0.1280819 -0.05607,0.2114258 -0.01144,0.083344 -0.03533,0.1599471 -0.05304,0.1702127 -0.01772,0.010219 -0.03222,0.1446283 -0.03222,0.2985848 0,0.1539471 -0.02308,0.3630005 -0.0513,0.4645413 -0.02822,0.1015501 -0.05184,0.2524597 -0.05251,0.3353536 -6.64e-4,0.082875 -0.02321,0.1867971 -0.05008,0.2308784 -0.02688,0.044063 -0.04942,0.156844 -0.05008,0.2505754 -6.7e-4,0.09375 -0.0166,0.1974002 -0.03544,0.2303721 -0.01882,0.033 -0.04938,0.1969409 -0.0679,0.3643787 -0.01852,0.1674283 -0.04893,0.3667317 -0.06758,0.442885 -0.07488,0.3058223 -0.11106,0.5030538 -0.137135,0.7476198 -0.01504,0.1410658 -0.04349,0.2997566 -0.0632,0.3526598 -0.01973,0.052875 -0.05325,0.2115941 -0.0745,0.3526599 -0.02125,0.1410658 -0.05352,0.3556693 -0.07171,0.4768975 -0.01818,0.1212283 -0.04798,0.246516 -0.06618,0.2784192 -0.0182,0.031875 -0.03311,0.1380096 -0.03311,0.2358003 0,0.097781 -0.02183,0.2321816 -0.04848,0.2986598 -0.02666,0.066469 -0.05603,0.2115847 -0.06527,0.3224536 -0.0092,0.1108689 -0.03148,0.2190659 -0.04942,0.2404503 -0.01795,0.021375 -0.04228,0.1297127 -0.05406,0.2407316 -0.01178,0.1110189 -0.03699,0.2290972 -0.05599,0.2623879 -0.01901,0.033281 -0.03456,0.1246501 -0.03456,0.2030064 0,0.078375 -0.02074,0.1911094 -0.04609,0.2505754 -0.02535,0.05944 -0.04953,0.187453 -0.05374,0.284438 -0.0041,0.09699 -0.02964,0.208285 -0.0565,0.247341 -0.02687,0.03909 -0.04895,0.132835 -0.04906,0.208388 -1.1e-4,0.07556 -0.02319,0.178716 -0.05129,0.229219 -0.0281,0.05053 -0.05108,0.161382 -0.05108,0.246375 0,0.08503 -0.01621,0.194513 -0.03602,0.243357 -0.0198,0.04884 -0.04967,0.183235 -0.06638,0.29865 -0.01671,0.115407 -0.04065,0.245907 -0.0532,0.289988 -0.01257,0.04406 -0.03644,0.194954 -0.05307,0.33527 -0.01689,0.142444 -0.05171,0.27525 -0.07882,0.300684 -0.06809,0.06384 -0.7377923,0.09206 -0.7982573,0.03375 z m -6.1807348,-0.06 c -0.028483,-0.02953 -0.051787,-0.09847 -0.051787,-0.153235 0,-0.05475 -0.01408,-0.134306 -0.031291,-0.176737 -0.017208,-0.04247 -0.0361,-0.220107 -0.041977,-0.394829 -0.00588,-0.174722 -0.028865,-0.353738 -0.05108,-0.397819 -0.022216,-0.04406 -0.048089,-0.246066 -0.057494,-0.448848 -0.00941,-0.202781 -0.033895,-0.419091 -0.054419,-0.480694 -0.020525,-0.06159 -0.037318,-0.235294 -0.037318,-0.385998 0,-0.150703 -0.020746,-0.352781 -0.046103,-0.4490535 C 3.2070382,9.8617013 3.1826552,9.610179 3.1782102,9.3990537 3.1737703,9.1879191 3.1581872,8.9931532 3.1435912,8.9662375 3.1289961,8.9393312 3.1146101,8.8668061 3.1116241,8.8050904 3.0955391,8.4726618 3.039677,7.9030454 3.0094391,7.7631233 2.9903841,7.6749982 2.973878,7.513598 2.9727561,7.4045384 2.9716361,7.2954789 2.9540511,7.165635 2.9336811,7.1159943 2.913311,7.0664005 2.8824009,6.8598314 2.8649929,6.6570499 2.8475839,6.4542684 2.8252128,6.2450743 2.8152778,6.1921711 2.8053478,6.1392961 2.7828528,5.9589302 2.7652998,5.7914174 2.7477457,5.6239047 2.7263477,5.443567 2.7177477,5.3906638 2.7091477,5.3377887 2.6894506,5.2151354 2.6739756,5.1181509 2.6460345,4.9430444 2.6438926,4.940485 2.3649767,4.7494597 1.9784316,4.4847187 1.6937285,4.2873841 1.5239054,4.1664839 1.4450473,4.1103276 1.3664996,4.0634619 1.3493549,4.06229 1.3322099,4.0613525 1.2014046,3.9770712 1.0586746,3.8754366 0.91594517,3.7738396 0.71452757,3.6374988 0.61107917,3.572455 0.50763137,3.5073924 0.3621606,3.3957641 0.28781058,3.324364 0.21346147,3.2529264 0.12449173,3.1945388 0.09010097,3.1945388 c -0.12006929,0 -0.12012469,-0.090469 -1.59e-4,-0.2607754 0.34703194,-0.4927699 0.36167827,-0.5088293 0.41942,-0.4598448 0.030694,0.026063 0.072063,0.047344 0.091932,0.047344 0.019869,0 0.1202433,0.064969 0.223054,0.1442721 0.1028111,0.079313 0.20272193,0.1442627 0.22202553,0.1442627 0.019305,0 0.054256,0.021656 0.07767,0.048094 0.023415,0.026438 0.068783,0.048094 0.100819,0.048094 0.032035,0 0.095554,0.037594 0.1411523,0.083531 0.045598,0.045937 0.1136836,0.096553 0.1513014,0.1124439 0.1594796,0.067313 0.4572689,0.2359691 0.6253839,0.3540942 0.1391726,0.0978 0.2061158,0.1247627 0.2906796,0.1171033 0.1078292,-0.00975 0.1096394,-0.012656 0.09765,-0.1531689 -0.00672,-0.07875 -0.025955,-0.1770847 -0.042747,-0.2184941 -0.034606,-0.085313 -0.041219,-0.4244823 -0.00977,-0.5013012 0.016652,-0.040688 0.077664,-0.050719 0.3085121,-0.050719 0.3496499,0 0.3373162,-0.017062 0.3875946,0.5350512 0.019574,0.2149316 0.050954,0.4286725 0.069735,0.4749757 0.018778,0.046313 0.034145,0.1779846 0.034145,0.2926035 0,0.1146283 0.018072,0.2399254 0.040157,0.2784473 0.022086,0.038531 0.043925,0.1349439 0.048529,0.214294 0.0046,0.079313 0.026629,0.2885442 0.048941,0.4648788 0.022313,0.1763253 0.052329,0.4792976 0.066701,0.6732666 0.014373,0.1939596 0.043161,0.4103724 0.063975,0.4809007 0.020814,0.0705 0.03827,0.2436565 0.03879,0.3847224 5.209e-4,0.1410658 0.023702,0.3863255 0.051516,0.5450257 0.027813,0.1587002 0.050928,0.3823224 0.051368,0.496932 4.386e-4,0.1146189 0.023791,0.351413 0.051893,0.5262101 0.028103,0.1747877 0.051095,0.4101849 0.051095,0.5230788 0,0.1129033 0.01697,0.2350129 0.037711,0.271341 0.020742,0.036375 0.051127,0.2193285 0.067523,0.40666 0.016395,0.1873315 0.044469,0.4199537 0.062385,0.5169382 0.017915,0.096975 0.033698,0.3271884 0.03507,0.5115664 0.00137,0.184379 0.02476,0.472913 0.05197,0.641204 0.1083794,0.670276 0.1387528,0.934389 0.1660811,1.444109 0.00519,0.09698 0.028967,0.209409 0.052817,0.249825 0.02385,0.04041 0.038627,0.126985 0.032836,0.192366 l -0.010532,0.118866 -0.3158373,0.0028 c -0.2546873,0.0028 -0.325864,-0.0075 -0.3676246,-0.05063 z m 4.5078094,0.01294 c -0.026841,-0.06563 0.0192,-1.52102 0.049541,-1.566142 0.01268,-0.01884 0.03325,-0.337257 0.045701,-0.707561 0.01245,-0.370294 0.039739,-0.7138787 0.06064,-0.7635194 0.022299,-0.052969 0.038501,-0.3112317 0.03922,-0.6251728 8.059e-4,-0.3534755 0.018021,-0.6001696 0.05076,-0.7272854 0.032219,-0.1251001 0.05085,-0.3829318 0.053289,-0.7373822 0.0021,-0.2997661 0.017019,-0.6820885 0.033241,-0.8496012 0.016219,-0.1675128 0.04483,-0.7157448 0.06357,-1.2182924 0.01874,-0.5025475 0.04311,-0.993067 0.054159,-1.0900515 0.01104,-0.096975 0.028421,-0.5009351 0.03861,-0.8976856 0.010183,-0.3967506 0.029609,-0.7718547 0.04315,-0.8335704 l 0.024609,-0.1122125 h 0.5282978 c 0.2905645,0 0.7042116,0.0075 0.9192179,0.016031 0.389957,0.016031 0.39098,0.016219 0.415476,0.1024877 0.01582,0.055688 0.0078,0.1070162 -0.02221,0.1442725 -0.03376,0.041719 -0.04707,0.1720503 -0.04785,0.4686851 -6.74e-4,0.2555628 -0.01649,0.4373537 -0.04184,0.48091 -0.02242,0.038531 -0.04616,0.2070847 -0.05276,0.3745974 -0.0066,0.1675127 -0.02755,0.3767068 -0.04654,0.4648788 -0.01899,0.088125 -0.04869,0.3189942 -0.066,0.5129632 -0.01731,0.1939596 -0.04105,0.4031537 -0.05275,0.4648694 -0.0117,0.061688 -0.03505,0.2420628 -0.05187,0.4007537 -0.01681,0.1587002 -0.04613,0.3216848 -0.06513,0.3621942 -0.019,0.0405 -0.03454,0.1781347 -0.03454,0.3058505 0,0.1277158 -0.02308,0.315291 -0.0513,0.4168412 -0.02821,0.1015407 -0.0513,0.2818785 -0.0513,0.4007537 0,0.1188657 -0.02119,0.294891 -0.04708,0.3911724 -0.02589,0.096281 -0.05589,0.3008723 -0.06666,0.4546506 -0.01077,0.1537784 -0.03535,0.3072004 -0.05461,0.3409505 -0.01927,0.03375 -0.03712,0.182044 -0.03968,0.3295504 -0.0026,0.152194 -0.02621,0.3167255 -0.0545,0.3804006 -0.02874,0.064688 -0.05001,0.2162628 -0.05025,0.358013 -2.74e-4,0.1596845 -0.01705,0.2663905 -0.04791,0.3045755 -0.03133,0.03872 -0.04839,0.151584 -0.05009,0.331285 -0.0014,0.149878 -0.01863,0.337435 -0.038249,0.416785 -0.019621,0.07931 -0.048421,0.305231 -0.064,0.501966 -0.015579,0.196735 -0.045019,0.386944 -0.06543,0.422691 -0.020409,0.03572 -0.037339,0.148894 -0.03763,0.251448 -2.74e-4,0.102553 -0.02283,0.273019 -0.05008,0.378816 -0.02725,0.105797 -0.05009,0.23925 -0.05076,0.29656 l -0.00121,0.104193 H 8.68069 c -0.4681986,0 -0.5512648,-0.0075 -0.5689788,-0.05072 z m -3.3558397,-0.01988 c -0.026192,-0.02456 -0.041036,-0.149297 -0.041036,-0.344859 0,-0.168507 -0.016421,-0.356785 -0.03649,-0.418379 -0.02007,-0.06159 -0.049757,-0.292341 -0.065974,-0.512757 -0.016217,-0.220414 -0.0448,-0.484855 -0.063521,-0.587633 C 4.5300922,10.87184 4.5104302,10.604933 4.5051182,10.381508 4.4998081,10.158083 4.4762362,9.9247857 4.4527401,9.86307 4.4292441,9.8013824 4.4093451,9.6253197 4.408519,9.4718882 4.4076933,9.3184661 4.386449,9.1164815 4.36131,9.0230501 4.3361699,8.9295812 4.3120349,8.6738121 4.3076739,8.4545962 4.3023039,8.1843614 4.2839839,8.0274518 4.2507888,7.9672736 4.2162147,7.9045548 4.2018318,7.7643983 4.2018318,7.4900854 c 0,-0.2159815 -0.01634,-0.417038 -0.036805,-0.4528881 C 4.1447836,7.0017598 4.1196475,6.7826657 4.1091675,6.550381 4.0986875,6.3180963 4.0756056,6.1108148 4.0578754,6.0897585 4.0401445,6.0686647 4.0121055,5.8883645 3.9955664,5.6890048 3.9790273,5.4896451 3.9507204,5.2399698 3.9326603,5.1341728 3.9146002,5.0283757 3.8985263,4.8237286 3.8969393,4.6794003 3.8953492,4.5350719 3.8775892,4.3763905 3.8574661,4.3267779 3.8373432,4.2771841 3.807655,4.063415 3.7914921,3.8517929 3.7753291,3.6401801 3.7465441,3.3949016 3.727525,3.306739 3.7085052,3.218614 3.6920273,3.0433855 3.6909052,2.9174317 c -0.00165,-0.185344 0.00884,-0.2329222 0.054976,-0.2495253 0.031358,-0.01125 0.072908,-0.00563 0.092334,0.012563 0.020985,0.019687 0.2329458,0.033094 0.5223265,0.033094 0.2709185,0 0.4959227,0.0135 0.5070996,0.030469 0.011051,0.016781 0.029242,0.2295664 0.040425,0.4728948 0.011183,0.2433191 0.035691,0.4699694 0.054463,0.5036632 0.018772,0.033656 0.045879,0.2861629 0.060235,0.5610477 0.014359,0.2748941 0.042171,0.5377039 0.061806,0.5840258 0.019635,0.046313 0.038967,0.3276474 0.042957,0.6251728 0.00398,0.2975254 0.020611,0.565482 0.036933,0.5954633 0.016322,0.03 0.04579,0.3618005 0.065486,0.7373823 0.019696,0.3755911 0.041946,0.7333791 0.049447,0.7950948 0.0075,0.061688 0.022226,0.321413 0.032724,0.5770883 0.010501,0.2556848 0.033449,0.5586477 0.051004,0.6732666 0.017555,0.1146189 0.030718,0.2733191 0.02925,0.3526599 -0.00638,0.3450848 0.05031,1.2210861 0.09233,1.4266891 0.025226,0.123432 0.047671,0.433192 0.049877,0.688351 0.003,0.345976 0.01605,0.476401 0.05136,0.512982 0.03048,0.03159 0.03677,0.06675 0.01765,0.09881 -0.01695,0.02841 -0.01627,0.104072 0.0016,0.176316 0.04773,0.192984 0.04111,0.673538 -0.0098,0.712257 -0.02851,0.02166 -0.1145956,0.02212 -0.2584404,0.0019 -0.1480027,-0.02128 -0.2488777,-0.02025 -0.3214318,0.0038 -0.1369753,0.04481 -0.2089109,0.04369 -0.2596801,-0.0038 z m 1.3107256,-0.06497 c -0.008,-0.02241 -0.023259,-0.29326 -0.03387,-0.601848 -0.010613,-0.308579 -0.026391,-0.61876 -0.03507,-0.689289 -0.0087,-0.0705 -0.02545,-0.467269 -0.03727,-0.881635 -0.01593,-0.558372 -0.03416,-0.7763409 -0.07043,-0.8420973 -0.03911,-0.070875 -0.04127,-0.1154064 -0.01076,-0.2216347 0.02672,-0.093 0.02751,-0.1530095 0.0026,-0.1998565 -0.021083,-0.039656 -0.041613,-0.452035 -0.050413,-1.012717 -0.0082,-0.5201726 -0.03189,-1.1405454 -0.0527,-1.3785863 -0.02081,-0.2380504 -0.04224,-0.6564384 -0.04761,-0.9297576 -0.0054,-0.2733097 -0.02204,-0.5154944 -0.03704,-0.538182 -0.015,-0.022687 -0.01688,-0.098934 -0.0042,-0.1694252 0.01375,-0.076313 0.0084,-0.1448065 -0.01331,-0.1693034 -0.02188,-0.02475 -0.03867,-0.2484753 -0.04208,-0.560757 -0.0031,-0.2858067 -0.01947,-0.5276351 -0.03633,-0.5374039 -0.01686,-0.00975 -0.03058,-0.099563 -0.0305,-0.1995565 5.5e-5,-0.099994 -0.0079,-0.3948381 -0.01773,-0.6552197 l -0.017881,-0.4734292 0.8994515,0.00844 0.8994514,0.00844 -0.0069,0.2083976 c -0.00379,0.1146096 -0.0092,0.2877379 -0.01208,0.3847224 -0.00281,0.096975 0.00839,0.3278161 0.02493,0.5129633 0.01655,0.1851471 0.029679,2.2770781 0.029179,4.6487408 l -9.11e-4,4.3121122 -0.641988,0.0084 c -0.4957418,0.0066 -0.64531,-5.63e-4 -0.656567,-0.03206 z M 13.298409,2.661447 C 13.194964,2.639041 13.024648,2.615228 12.919936,2.608572 12.815222,2.602012 12.708803,2.584384 12.683444,2.569759 12.618505,2.532165 11.425766,2.477696 10.853277,2.486321 9.7627327,2.5026343 9.2239091,2.4992592 8.8356155,2.473853 8.4176508,2.4464779 7.3811041,2.4341029 6.8863494,2.4506029 6.2749944,2.4709467 2.5084611,2.4214466 2.4777187,2.3926653 2.4599157,2.3759778 2.4342196,2.2790964 2.4206156,2.1773775 2.4070116,2.0756587 2.3861826,1.9347241 2.3743275,1.8641959 2.3375085,1.6451206 2.3228164,1.6487768 3.2142159,1.6552081 c 2.4373765,0.017625 3.1089186,0.029531 3.2788598,0.0585 0.103449,0.017625 0.3496717,0.025406 0.5471629,0.01725 0.1974913,-0.00844 0.3898526,-0.013125 0.4274697,-0.011062 0.089291,0.00469 0.9748966,0.020437 1.7098837,0.029906 0.3197476,0.00375 1.073806,0.00656 1.675685,0.00469 0.613936,-9.375e-4 1.184398,0.012188 1.299511,0.030844 0.112852,0.018281 0.359075,0.044156 0.547162,0.057469 0.188087,0.013313 0.375591,0.041531 0.416674,0.062625 0.04108,0.021187 0.118027,0.039094 0.170987,0.039844 0.166014,0.00281 0.437739,0.08325 0.448284,0.1332752 0.0055,0.026156 -0.01373,0.066 -0.04275,0.088594 -0.03692,0.028688 -0.05292,0.1000314 -0.05329,0.2374972 -7.75e-4,0.2905223 -0.0418,0.321338 -0.341454,0.2564535 z"
     id="path4798"
     inkscape:export-filename="H:\OneDrive\4 Programation\- VS Code\Extensions\micro-bit-fr\image\Trash16.png"
     inkscape:export-xdpi="150"
     inkscape:export-ydpi="150" />
</svg>
